<svg width="1057" height="464" viewBox="0 0 1057 464" fill="none" xmlns="http://www.w3.org/2000/svg">
<path d="M295.826 389.614C302.266 376.94 293.069 361.926 278.866 361.926H19.0461C-2.65458 361.926 -7.44032 331.398 13.2171 324.743L238.031 252.322C252.65 247.612 255.961 228.399 243.763 219.058L35.9898 59.9456C17.9218 46.1092 34.9449 17.9415 55.5732 27.5414L346.082 162.737C361.906 170.101 378.46 154.037 371.601 137.974L312.68 0H414.548L467.222 74.8075C476.84 88.4673 498.114 83.9917 501.426 67.6115L515.096 0H637.615L642.604 112.51C643.149 124.808 655.029 133.367 666.851 129.979L1032.63 25.1589C1053.88 19.0698 1066.67 48.0362 1047.87 59.6742L707.924 270.146C693.941 278.803 696.767 299.94 712.531 304.613L1037.32 400.875C1058.41 407.127 1053.85 438.268 1031.85 438.19L677.967 436.944C663.823 436.894 654.826 451.617 660.627 464H258.021L295.826 389.614Z" fill="#10A554"/>
</svg>
