<svg width="28" height="29" viewBox="0 0 28 29" fill="none" xmlns="http://www.w3.org/2000/svg">
<path d="M21.9371 8.90039H6.07031" stroke="black" stroke-width="1.5" stroke-linecap="round"/>
<path d="M20.3806 11.2334L19.9513 17.6726C19.7861 20.1505 19.7035 21.3894 18.8961 22.1448C18.0888 22.9001 16.8471 22.9001 14.3637 22.9001H13.6419C11.1585 22.9001 9.91675 22.9001 9.10941 22.1448C8.30207 21.3894 8.21947 20.1505 8.05428 17.6726L7.625 11.2334" stroke="black" stroke-width="1.5" stroke-linecap="round"/>
<path d="M8.86719 8.89961C8.91934 8.89961 8.94542 8.89961 8.96906 8.89901C9.73761 8.87953 10.4156 8.39086 10.6771 7.66791C10.6852 7.64567 10.6934 7.62093 10.7099 7.57145L10.8005 7.29961C10.8779 7.06755 10.9166 6.95151 10.9679 6.853C11.1725 6.45994 11.5512 6.187 11.9888 6.11712C12.0985 6.09961 12.2208 6.09961 12.4654 6.09961H15.5356C15.7802 6.09961 15.9025 6.09961 16.0122 6.11712C16.4498 6.187 16.8285 6.45994 17.0332 6.853C17.0845 6.95151 17.1232 7.06755 17.2005 7.29961L17.2911 7.57145C17.3076 7.62086 17.3159 7.64568 17.3239 7.66791C17.5854 8.39086 18.2634 8.87953 19.032 8.89901C19.0556 8.89961 19.0817 8.89961 19.1339 8.89961" stroke="black" stroke-width="1.5" stroke-linecap="round"/>
</svg>
